<svg width="30" height="30" viewBox="0 0 30 30" fill="none" xmlns="http://www.w3.org/2000/svg">
<g id="Group">
<path id="Vector" d="M15 30C23.2843 30 30 23.2843 30 15C30 6.71573 23.2843 0 15 0C6.71573 0 0 6.71573 0 15C0 23.2843 6.71573 30 15 30Z" fill="#627EEA"/>
<g id="Group_2">
<path id="Vector_2" d="M15.4668 3.75V12.0656L22.4952 15.2063L15.4668 3.75Z" fill="white" fill-opacity="0.602"/>
<path id="Vector_3" d="M15.4669 3.75L8.4375 15.2063L15.4669 12.0656V3.75Z" fill="white"/>
<path id="Vector_4" d="M15.4668 20.5951V26.2455L22.4999 16.5151L15.4668 20.5951Z" fill="white" fill-opacity="0.602"/>
<path id="Vector_5" d="M15.4669 26.2455V20.5942L8.4375 16.5151L15.4669 26.2455Z" fill="white"/>
<path id="Vector_6" d="M15.4668 19.2871L22.4952 15.2061L15.4668 12.0674V19.2871Z" fill="white" fill-opacity="0.2"/>
<path id="Vector_7" d="M8.4375 15.2061L15.4669 19.2871V12.0674L8.4375 15.2061Z" fill="white" fill-opacity="0.602"/>
</g>
</g>
</svg>
